<mxfile host="app.diagrams.net" modified="2023-02-24T03:50:38.940Z" agent="5.0 (Windows NT 10.0; Win64; x64) AppleWebKit/537.36 (KHTML, like Gecko) Chrome/110.0.0.0 Safari/537.36" etag="bm7iB_5dxHMlq_dBkqtQ" version="20.8.20" type="github">
  <diagram name="Page-1" id="e7e014a7-5840-1c2e-5031-d8a46d1fe8dd">
    <mxGraphModel dx="880" dy="444" grid="1" gridSize="10" guides="1" tooltips="1" connect="1" arrows="1" fold="1" page="1" pageScale="1" pageWidth="1169" pageHeight="826" background="none" math="0" shadow="0">
      <root>
        <mxCell id="0" />
        <mxCell id="1" parent="0" />
        <mxCell id="2" value="pelanggan" style="swimlane;whiteSpace=wrap" parent="1" vertex="1">
          <mxGeometry x="164.5" y="128" width="280" height="592" as="geometry" />
        </mxCell>
        <mxCell id="bEDyLr26EEfE1acCkWMw-43" style="edgeStyle=orthogonalEdgeStyle;rounded=0;orthogonalLoop=1;jettySize=auto;html=1;exitX=0.5;exitY=1;exitDx=0;exitDy=0;entryX=0.496;entryY=0;entryDx=0;entryDy=0;entryPerimeter=0;strokeColor=#FF0000;" edge="1" parent="2" source="5" target="bEDyLr26EEfE1acCkWMw-41">
          <mxGeometry relative="1" as="geometry" />
        </mxCell>
        <mxCell id="5" value="" style="ellipse;shape=startState;fillColor=#000000;strokeColor=#ff0000;" parent="2" vertex="1">
          <mxGeometry x="125" y="32" width="30" height="30" as="geometry" />
        </mxCell>
        <mxCell id="bEDyLr26EEfE1acCkWMw-41" value="pesan" style="rounded=1;whiteSpace=wrap;html=1;arcSize=40;fontColor=#000000;fillColor=#ffffc0;strokeColor=#ff0000;" vertex="1" parent="2">
          <mxGeometry x="80" y="82" width="120" height="40" as="geometry" />
        </mxCell>
        <mxCell id="bEDyLr26EEfE1acCkWMw-65" style="edgeStyle=elbowEdgeStyle;rounded=0;orthogonalLoop=1;jettySize=auto;html=1;strokeColor=#FF0000;exitX=0.533;exitY=1.05;exitDx=0;exitDy=0;exitPerimeter=0;elbow=vertical;" edge="1" parent="2" source="bEDyLr26EEfE1acCkWMw-57">
          <mxGeometry relative="1" as="geometry">
            <mxPoint x="435.5" y="362" as="targetPoint" />
            <mxPoint x="105.5" y="342" as="sourcePoint" />
          </mxGeometry>
        </mxCell>
        <mxCell id="bEDyLr26EEfE1acCkWMw-57" value="mengisi form pemesanan" style="rounded=1;whiteSpace=wrap;html=1;arcSize=40;fontColor=#000000;fillColor=#ffffc0;strokeColor=#ff0000;" vertex="1" parent="2">
          <mxGeometry x="45.5" y="292" width="120" height="40" as="geometry" />
        </mxCell>
        <mxCell id="bEDyLr26EEfE1acCkWMw-64" style="edgeStyle=elbowEdgeStyle;rounded=0;orthogonalLoop=1;jettySize=auto;html=1;strokeColor=#FF0000;exitX=0.504;exitY=1;exitDx=0;exitDy=0;exitPerimeter=0;entryX=1;entryY=0.475;entryDx=0;entryDy=0;entryPerimeter=0;" edge="1" parent="2" source="bEDyLr26EEfE1acCkWMw-61" target="bEDyLr26EEfE1acCkWMw-57">
          <mxGeometry relative="1" as="geometry">
            <mxPoint x="205.5" y="312" as="targetPoint" />
            <Array as="points">
              <mxPoint x="206" y="292" />
            </Array>
          </mxGeometry>
        </mxCell>
        <mxCell id="bEDyLr26EEfE1acCkWMw-61" value="masukan email dan password" style="rounded=1;whiteSpace=wrap;html=1;arcSize=40;fontColor=#000000;fillColor=#ffffc0;strokeColor=#ff0000;" vertex="1" parent="2">
          <mxGeometry x="145.5" y="222" width="120" height="40" as="geometry" />
        </mxCell>
        <mxCell id="bEDyLr26EEfE1acCkWMw-77" style="edgeStyle=elbowEdgeStyle;rounded=0;orthogonalLoop=1;jettySize=auto;html=1;entryX=0.5;entryY=0;entryDx=0;entryDy=0;strokeColor=#FF0000;" edge="1" parent="2" source="bEDyLr26EEfE1acCkWMw-73" target="bEDyLr26EEfE1acCkWMw-75">
          <mxGeometry relative="1" as="geometry" />
        </mxCell>
        <mxCell id="bEDyLr26EEfE1acCkWMw-73" value="tampil data pesanan" style="rounded=1;whiteSpace=wrap;html=1;arcSize=40;fontColor=#000000;fillColor=#ffffc0;strokeColor=#ff0000;" vertex="1" parent="2">
          <mxGeometry x="80" y="432" width="120" height="40" as="geometry" />
        </mxCell>
        <mxCell id="bEDyLr26EEfE1acCkWMw-75" value="" style="ellipse;html=1;shape=endState;fillColor=#000000;strokeColor=#ff0000;" vertex="1" parent="2">
          <mxGeometry x="125" y="522" width="30" height="30" as="geometry" />
        </mxCell>
        <mxCell id="3" value="sistem" style="swimlane;whiteSpace=wrap" parent="1" vertex="1">
          <mxGeometry x="444.5" y="128" width="280" height="592" as="geometry" />
        </mxCell>
        <mxCell id="bEDyLr26EEfE1acCkWMw-52" style="edgeStyle=orthogonalEdgeStyle;rounded=0;orthogonalLoop=1;jettySize=auto;html=1;entryX=0.5;entryY=0;entryDx=0;entryDy=0;strokeColor=#FF0000;exitX=0.492;exitY=1.075;exitDx=0;exitDy=0;exitPerimeter=0;" edge="1" parent="3" source="bEDyLr26EEfE1acCkWMw-44" target="bEDyLr26EEfE1acCkWMw-49">
          <mxGeometry relative="1" as="geometry" />
        </mxCell>
        <mxCell id="bEDyLr26EEfE1acCkWMw-44" value="verifikasi login" style="rounded=1;whiteSpace=wrap;html=1;arcSize=40;fontColor=#000000;fillColor=#ffffc0;strokeColor=#ff0000;" vertex="1" parent="3">
          <mxGeometry x="85.5" y="82" width="120" height="40" as="geometry" />
        </mxCell>
        <mxCell id="bEDyLr26EEfE1acCkWMw-49" value="login?" style="rhombus;whiteSpace=wrap;html=1;fontColor=#000000;fillColor=#ffffc0;strokeColor=#ff0000;" vertex="1" parent="3">
          <mxGeometry x="105.5" y="152" width="80" height="40" as="geometry" />
        </mxCell>
        <mxCell id="bEDyLr26EEfE1acCkWMw-51" value="tidak" style="edgeStyle=orthogonalEdgeStyle;html=1;align=left;verticalAlign=top;endArrow=open;endSize=8;strokeColor=#ff0000;rounded=0;" edge="1" source="bEDyLr26EEfE1acCkWMw-49" parent="3">
          <mxGeometry x="-1" relative="1" as="geometry">
            <mxPoint x="145.5" y="222" as="targetPoint" />
          </mxGeometry>
        </mxCell>
        <mxCell id="bEDyLr26EEfE1acCkWMw-56" value="tampil form login" style="rounded=1;whiteSpace=wrap;html=1;arcSize=40;fontColor=#000000;fillColor=#ffffc0;strokeColor=#ff0000;" vertex="1" parent="3">
          <mxGeometry x="85.5" y="222" width="120" height="40" as="geometry" />
        </mxCell>
        <mxCell id="bEDyLr26EEfE1acCkWMw-72" style="edgeStyle=elbowEdgeStyle;rounded=0;orthogonalLoop=1;jettySize=auto;html=1;entryX=0.417;entryY=-0.025;entryDx=0;entryDy=0;entryPerimeter=0;strokeColor=#FF0000;exitX=0.508;exitY=0.975;exitDx=0;exitDy=0;exitPerimeter=0;" edge="1" parent="3" source="bEDyLr26EEfE1acCkWMw-66" target="bEDyLr26EEfE1acCkWMw-68">
          <mxGeometry relative="1" as="geometry" />
        </mxCell>
        <mxCell id="bEDyLr26EEfE1acCkWMw-66" value="simpan pesanan" style="rounded=1;whiteSpace=wrap;html=1;arcSize=40;fontColor=#000000;fillColor=#ffffc0;strokeColor=#ff0000;" vertex="1" parent="3">
          <mxGeometry x="95.5" y="362" width="120" height="40" as="geometry" />
        </mxCell>
        <mxCell id="bEDyLr26EEfE1acCkWMw-68" value="data pesanan" style="rounded=1;whiteSpace=wrap;html=1;arcSize=40;fontColor=#000000;fillColor=#ffffc0;strokeColor=#ff0000;" vertex="1" parent="3">
          <mxGeometry x="105.5" y="432" width="120" height="40" as="geometry" />
        </mxCell>
        <mxCell id="4" value="admin" style="swimlane;whiteSpace=wrap" parent="1" vertex="1">
          <mxGeometry x="724.5" y="128" width="280" height="592" as="geometry" />
        </mxCell>
        <mxCell id="bEDyLr26EEfE1acCkWMw-69" value="konfirmasi pesanan" style="rounded=1;whiteSpace=wrap;html=1;arcSize=40;fontColor=#000000;fillColor=#ffffc0;strokeColor=#ff0000;" vertex="1" parent="4">
          <mxGeometry x="95.5" y="432" width="120" height="40" as="geometry" />
        </mxCell>
        <mxCell id="bEDyLr26EEfE1acCkWMw-46" style="edgeStyle=orthogonalEdgeStyle;rounded=0;orthogonalLoop=1;jettySize=auto;html=1;entryX=-0.008;entryY=0.525;entryDx=0;entryDy=0;entryPerimeter=0;strokeColor=#FF0000;" edge="1" parent="1" target="bEDyLr26EEfE1acCkWMw-44">
          <mxGeometry relative="1" as="geometry">
            <mxPoint x="370" y="231" as="sourcePoint" />
          </mxGeometry>
        </mxCell>
        <mxCell id="bEDyLr26EEfE1acCkWMw-63" style="edgeStyle=orthogonalEdgeStyle;rounded=0;orthogonalLoop=1;jettySize=auto;html=1;entryX=1;entryY=0.5;entryDx=0;entryDy=0;entryPerimeter=0;strokeColor=#FF0000;" edge="1" parent="1" target="bEDyLr26EEfE1acCkWMw-61">
          <mxGeometry relative="1" as="geometry">
            <mxPoint x="530" y="370" as="sourcePoint" />
          </mxGeometry>
        </mxCell>
        <mxCell id="bEDyLr26EEfE1acCkWMw-53" value="ya" style="edgeStyle=elbowEdgeStyle;rounded=0;orthogonalLoop=1;jettySize=auto;html=1;exitX=0;exitY=0.5;exitDx=0;exitDy=0;strokeColor=#FF0000;elbow=vertical;entryX=0.508;entryY=0;entryDx=0;entryDy=0;entryPerimeter=0;" edge="1" parent="1" source="bEDyLr26EEfE1acCkWMw-49" target="bEDyLr26EEfE1acCkWMw-57">
          <mxGeometry relative="1" as="geometry">
            <mxPoint x="240" y="300" as="targetPoint" />
            <Array as="points">
              <mxPoint x="410" y="300" />
            </Array>
          </mxGeometry>
        </mxCell>
        <mxCell id="bEDyLr26EEfE1acCkWMw-71" style="edgeStyle=elbowEdgeStyle;rounded=0;orthogonalLoop=1;jettySize=auto;html=1;entryX=1.008;entryY=0.45;entryDx=0;entryDy=0;entryPerimeter=0;strokeColor=#FF0000;" edge="1" parent="1" target="bEDyLr26EEfE1acCkWMw-68">
          <mxGeometry relative="1" as="geometry">
            <mxPoint x="820" y="580" as="sourcePoint" />
          </mxGeometry>
        </mxCell>
        <mxCell id="bEDyLr26EEfE1acCkWMw-74" style="edgeStyle=elbowEdgeStyle;rounded=0;orthogonalLoop=1;jettySize=auto;html=1;entryX=0.996;entryY=0.5;entryDx=0;entryDy=0;entryPerimeter=0;strokeColor=#FF0000;" edge="1" parent="1" target="bEDyLr26EEfE1acCkWMw-73">
          <mxGeometry relative="1" as="geometry">
            <mxPoint x="550" y="580" as="sourcePoint" />
          </mxGeometry>
        </mxCell>
      </root>
    </mxGraphModel>
  </diagram>
</mxfile>
